<mxfile host="app.diagrams.net" modified="2023-02-18T01:44:00.447Z" agent="5.0 (Windows NT 10.0; Win64; x64) AppleWebKit/537.36 (KHTML, like Gecko) Chrome/109.0.0.0 Safari/537.36" etag="lmBoPuDId4MmSsTMRtdq" version="20.8.20" type="github">
  <diagram name="第 1 页" id="A0sXVTUO56CwcfCdukGn">
    <mxGraphModel dx="875" dy="411" grid="1" gridSize="10" guides="1" tooltips="1" connect="1" arrows="1" fold="1" page="1" pageScale="1" pageWidth="827" pageHeight="1169" math="0" shadow="0">
      <root>
        <mxCell id="0" />
        <mxCell id="1" parent="0" />
        <mxCell id="YoZrRnC3NFI_vaAcTnie-2" value="&lt;font style=&quot;font-size: 30px;&quot;&gt;GDP&lt;/font&gt;" style="text;html=1;strokeColor=none;fillColor=none;align=center;verticalAlign=middle;whiteSpace=wrap;rounded=0;fontSize=24;fontFamily=Architects Daughter;fontColor=#5C5C5C;" vertex="1" parent="1">
          <mxGeometry x="100" y="360" width="80" height="40" as="geometry" />
        </mxCell>
        <mxCell id="YoZrRnC3NFI_vaAcTnie-6" style="edgeStyle=orthogonalEdgeStyle;rounded=0;sketch=1;hachureGap=4;jiggle=2;curveFitting=1;orthogonalLoop=1;jettySize=auto;html=1;exitX=1;exitY=0.5;exitDx=0;exitDy=0;entryX=0;entryY=0.5;entryDx=0;entryDy=0;strokeColor=#006658;fontFamily=Architects Daughter;fontSource=https%3A%2F%2Ffonts.googleapis.com%2Fcss%3Ffamily%3DArchitects%2BDaughter;fontSize=12;fontColor=#006658;fillColor=#21C0A5;" edge="1" parent="1" source="YoZrRnC3NFI_vaAcTnie-3" target="YoZrRnC3NFI_vaAcTnie-4">
          <mxGeometry relative="1" as="geometry" />
        </mxCell>
        <mxCell id="YoZrRnC3NFI_vaAcTnie-3" value="&lt;p style=&quot;line-height: 120%; font-size: 15px;&quot;&gt;&lt;font style=&quot;font-size: 15px;&quot;&gt;&lt;span style=&quot;color: rgb(32, 33, 34); text-align: start; background-color: rgb(255, 255, 255);&quot;&gt;Gross domestic product&lt;/span&gt;&lt;/font&gt;&lt;/p&gt;&lt;p style=&quot;line-height: 120%; font-size: 15px;&quot;&gt;&lt;font style=&quot;font-size: 15px;&quot;&gt;Leave out key other externalities&lt;/font&gt;&lt;/p&gt;&lt;p style=&quot;line-height: 120%; font-size: 15px;&quot;&gt;&lt;font style=&quot;font-size: 15px;&quot;&gt;Can&#39;t measure the economic health&lt;/font&gt;&lt;/p&gt;" style="rounded=0;whiteSpace=wrap;html=1;sketch=1;hachureGap=4;jiggle=2;curveFitting=1;fontFamily=Architects Daughter;fontSource=https%3A%2F%2Ffonts.googleapis.com%2Fcss%3Ffamily%3DArchitects%2BDaughter;fontSize=20;fillColor=#eeeeee;strokeColor=#36393d;fillStyle=auto;" vertex="1" parent="1">
          <mxGeometry y="400" width="280" height="120" as="geometry" />
        </mxCell>
        <mxCell id="YoZrRnC3NFI_vaAcTnie-4" value="&lt;p style=&quot;font-size: 15px;&quot;&gt;&lt;font style=&quot;font-size: 15px;&quot;&gt;&lt;font style=&quot;font-size: 15px;&quot; color=&quot;#006658&quot;&gt;GREEN&lt;/font&gt; Gross domestic product&lt;/font&gt;&lt;/p&gt;&lt;p style=&quot;font-size: 15px;&quot;&gt;&lt;font style=&quot;font-size: 15px;&quot;&gt;Monetize the natural capital consumption&lt;/font&gt;&lt;/p&gt;&lt;p style=&quot;font-size: 15px;&quot;&gt;&lt;font style=&quot;font-size: 15px;&quot;&gt;A good measure for sustainable development&lt;/font&gt;&lt;/p&gt;&lt;p&gt;&lt;/p&gt;&lt;p&gt;&lt;/p&gt;" style="rounded=0;whiteSpace=wrap;html=1;sketch=1;hachureGap=4;jiggle=2;fillStyle=auto;curveFitting=1;strokeColor=#006658;fontFamily=Architects Daughter;fontSource=https%3A%2F%2Ffonts.googleapis.com%2Fcss%3Ffamily%3DArchitects%2BDaughter;fontSize=12;fontColor=#5C5C5C;fillColor=#C3E0D9;" vertex="1" parent="1">
          <mxGeometry x="400" y="400" width="360" height="120" as="geometry" />
        </mxCell>
        <mxCell id="YoZrRnC3NFI_vaAcTnie-5" value="&lt;font style=&quot;font-size: 30px;&quot;&gt;GGDP&lt;/font&gt;" style="text;html=1;strokeColor=none;fillColor=none;align=center;verticalAlign=middle;whiteSpace=wrap;rounded=0;fontSize=24;fontFamily=Architects Daughter;fontColor=#006658;" vertex="1" parent="1">
          <mxGeometry x="540" y="360" width="80" height="40" as="geometry" />
        </mxCell>
      </root>
    </mxGraphModel>
  </diagram>
</mxfile>
